<svg xmlns="http://www.w3.org/2000/svg" width="3600" height="1800" xmlns:v="https://vecta.io/nano"><path d="M1947.67 459.641l8.533 1.172c39.739 5.152 79.392 12.431 116.797 27.188l4.043 1.57c10.594 4.147 10.594 4.147 14.957 6.555 4.029 2.109 8.278 3.068 12.67 4.169 8.15 2.091 16.022 4.967 23.926 7.834l6.639 2.375c7.176 2.581 14.16 5.473 21.078 8.684l2.194 1.01c3.32 1.577 6.152 2.936 8.493 5.803v3c-18.535 9.267-54.952-3.629-73.722-8.209l-16.903-3.916-20.25-4.937c-9.623-2.452-19.417-4.01-29.195-5.711-5.872-1.026-11.716-2.154-17.555-3.352L2000 501l-2.14-.43c-35.592-7.009-80.304-10.341-112.11 10.305-11.071 7.732-19.453 15.619-22.75 29.125-.416 3.409-.477 6.756-.437 10.188l.021 2.785c.185 7.913 1.621 14.592 4.417 22.027l1.309 3.637c2.358 6.424 2.358 6.424 5.691 12.363 2.826.451 2.826.451 6.313.313l2.111-.025c5.696-.12 11.358-.56 17.036-1.01 31.825-2.491 63.641-1.508 95.462.587l5.948.379c15.812 1.005 31.215 2.842 46.767 5.839 13.791 2.646 24.615 4.434 38.203-.117 14.31-4.369 29.254-.201 42.168 6.625 2.374 1.416 4.696 2.872 6.992 4.41 3.625 2.417 4.715 2.635 9 2 2.208-1.277 4.235-2.73 6.309-4.215 4.253-2.821 8.828-4.965 13.41-7.187 2.486-1.21 4.913-2.472 7.344-3.785 15.373-7.605 32.789-9.322 49.666-9.149l7.403.014c9.155.017 17.838.702 26.869 2.322l4.207.492c14.626 1.553 31.677 4.464 44.73 11.561 7.878 3.616 19.416-.063 27.629-1.446l12.755-2.079 2.544-.409a520.77 520.77 0 0 1 20.573-2.868l2.58-.312L2379 592l2.29-.243c15.14-1.589 30.163-2.101 45.382-2.073l10.963-.046c24.108-.065 47.615 2.236 67.803 16.799 2.333 1.766 2.333 1.766 4.445 1.414 2.806-1.129 4.399-2.795 6.555-4.914 9.832-9.077 18.772-14.302 32.34-13.781l6.16.344 6.215.344 2.75.162c2.086.241 2.086.241 3.098-1.006.235-2.35.414-4.706.563-7.062l.254-3.91L2568 575c11.573-4.943 27.053-4.344 39-1 3.23 1.301 3.787 2.009 6 5 .768 4.009.987 7.923 1 12l8.313.125 2.322.051c4.192.035 8.065-.238 12.174-1.082 8.875-1.747 17.931-2.121 26.941-2.719l2.939-.199c17.134-1.145 34.139-1.647 51.311-1.176l2.46.063c4.862.149 9.696.507 14.54.937l2.953.245c31.495 2.662 62.659 7.632 93.735 13.317l3.055.556c11.716 2.143 23.356 4.462 34.919 7.329 5.251 1.258 9.933 1.974 15.339 1.552 2.285-2.116 2.285-2.116 3.813-5.062 5.314-8.08 12.833-13.02 22.207-15.449 14.416-2.362 29.514-1.832 44.043-1.113l2.166.093c5.615.321 10.022 1.151 13.896 5.407 4.356 5.453 6.307 12.117 5.559 19.063-1.467 6.034-4.052 11.053-7.684 16.063-4.011-.43-7.671-.908-11.562-2-9.248-2.399-18.766-3.336-27.437 1l-3 1c-1.119 1.646-1.119 1.646-2 4l-1.524 3.591c-1.673 4.504-1.989 8.626-2.097 13.398l-.095 2.707-.188 6.006-.354 10.57c-2.989 72.953-2.989 72.953 1.258 145.729l.356 3.326c1.789 16.678 4.626 33.179 7.644 49.674l.476 2.79c.988 5.485 2.57 10.187 4.961 15.21l1.875 4.188.891 2c4.258 9.684 5.791 20.546 2.953 30.887-2.673 6.042-6.188 9.247-12.156 11.926l-1.953.961c-9.916 4.125-21.986 2.888-32.008-.109-5.961-5.413-4.681-18.656-5.162-26.197-.716-9.579-2.904-18.247-7.064-26.904l-.908-1.892C2867.437 851.044 2847.93 821.494 2819 804l-2.523-1.684c-15.399-9.992-34.525-13.761-52.602-10.629-23.707 5.709-53.803 20.862-67.125 42.25-4.3 7.634-7.594 15.073-5.75 24.063 2.667 2.667 3.913 2.988 7.75 3.5 11.067-.4 22.2-5.683 32.164-10.168 8.337-3.599 16.661-5.009 25.523-2.27 7.211 5.452 10.509 11.501 11.961 20.371.753 7.01.729 14.085.789 21.129l.04 2.901c.019 16.869.019 16.869-4.227 21.912l-3 1.625-2.164 1.23c-15.243 8.251-33.916 10.283-50.711 6.145-15.285-4.642-26.36-13.1-34.375-26.98-16.219-31.46-16.412-74.94-5.836-108.297L2670 786l1.086-3.129c5.264-13.831 14.224-24.914 27.664-31.309 6.377-2.826 11.863-3.724 18.805-3.801l2.212-.03c24.31-.258 46.105 2.466 69.234 10.268l2.11.694c11.622 3.866 22.181 9.416 32.89 15.306l4.715 2.551c9.37 5.099 18.38 10.582 27.285 16.449l8.531 5.43 4.75 3.078 2.094 1.367 1.773 1.18c2.24 1.144 4.388 1.49 6.852 1.945l-.179-2.075a579.68 579.68 0 0 1-2.086-50.343l-.006-6.976.011-14.467-.007-18.322v-14.355l-.005-6.748c-.021-12.803.325-25.383 1.926-38.102.74-5.419.74-5.419-1.426-10.208-10.566-6.656-26.699-7.115-38.79-8.966l-5.596-.881-31.231-4.521-14.544-2.121c-38.583-6.02-78.417-5.274-117.254-2.539l-2.73.191-7.625.583-2.209.168c-3.546.306-6.833.811-10.273 1.729-6.88 1.614-14.016 1.165-21.038 1.08l-4.357-.027L2612 629c-2.256 63.684-4.055 127.659-.362 191.318.424 7.412.619 14.822.8 22.244.365 13.417 1.054 26.813 1.803 40.213l.384 7.004.559 9.896.158 2.967a122.55 122.55 0 0 0 2.21 16.895c.692 3.8.892 7.544.948 11.4l.125 2.205c.031 2.135.031 2.135-.625 5.857-4.387 4.283-9.345 4.929-15.187 5.688l-2.561.365c-6.068.845-12.132 1.622-18.252 1.948l-2.965.195-2.973.117-2.652.113c-2.41-.426-2.41-.426-4.707-1.895-2.508-3.728-2.176-6.956-2.016-11.344l.029-2.369c.064-3.332.229-6.495.782-9.789.713-4.949.669-9.895.69-14.887l.025-3.27.067-10.772.055-7.649.11-16.319.269-38.572.062-8.643.718-71.871.681-78.349.032-8.129.022-10.94.022-3.162c.383-10.371.383-10.371-3.252-19.467a197.79 197.79 0 0 0-8.207-.238l-2.533-.024-5.339-.032-8.052-.105c-10.846-.098-20.857.157-30.057 6.65-6.615 10.037-4.01 29.678-4.645 41.62l-.354 6.561c-3.204 58.854-3.463 117.188-.019 176.048l.578 10.092.895 14.419.32 5.07.472 6.818.26 3.768c.988 4.858 3.243 8.064 6.905 11.345 3.065 3.462 2.246 7.186 2.102 11.602-1.078 11.327-1.078 11.327-5.215 15.156-4.795 2.841-10.464 1.3-15.609.125-5.116-1.372-10.091-3.058-15.062-4.875l-2.094-.754c-6.485-2.451-6.485-2.451-8.344-5.246-.656-1.857-1.306-3.717-1.888-5.598-2.755-8.793-5.817-12.963-14.112-17.402a127.82 127.82 0 0 1-3.562-2.625c-2.42-1.735-4.891-3.227-7.504-4.652l-9.895-5.562c-19.983-11.454-40.363-22.02-61.169-31.896-9.435-4.492-18.664-9.323-27.87-14.264l-8.687-4.625-2.12-1.128c-3.971-2.104-7.967-4.136-12.004-6.109-7.172-3.514-14.211-7.249-21.188-11.137l-2.644-1.437c-8.36-4.726-15.54-10.476-18.731-19.809-2.467-10.87-.591-22.726 4.883-32.426 3.71-5.142 8.541-9.91 14.492-12.328 3.42.3 5.832 1.323 8.75 3.063 4.654 2.318 8.119 3.126 13.25 1.938 15.587-6.287 30.551-16.01 44-26l2.422-1.77c4.47-3.353 8.508-6.523 11.578-11.23-.74-9.101-8.866-17.326-14.496-24.004C2365 697 2365 697 2365 695h-2c-1.324-1.539-2.583-3.135-3.812-4.75-26.173-32.685-66.514-56.47-108.02-61.625-3.168-.625-3.168-.625-6.785-2.051-19.493-7.619-45.593-8.709-65.383-1.574-5.089 2.477-9.505 5.589-14 9 .495 5.349 1.827 9.015 4.438 13.688 4.858 9.246 5.689 17.851 5.813 28.125l.029 2.138c-.056 8.583-2.217 13.876-7.994 20.03-8.556 7.562-19.294 7.201-30.098 7.207l-3.447.037c-10.499.018-19.018-.568-26.74-8.225-9.479-11.795-11.344-23.602-10.834-38.219l.057-2.859.086-2.575c-.382-2.905-1.329-4.221-3.309-6.347-3.115-1.263-4.696-1.084-7.937-.187-15.102 10.787-20.141 42.577-24.203 59.77-.859 3.418-.859 3.418-1.867 6.434-3.376 10.154-4.306 20.409-4.43 31.047l-.067 2.955c.018 6.193.797 9.964 4.504 14.983 7.428 4.714 15.8 2.691 24 1 6.078-1.401 12.045-3.153 18-5l2.077-.638c7.186-2.231 14.132-4.753 20.931-7.991 2.986-1.368 6.002-2.595 9.053-3.809 9.017-3.601 17.458-7.852 25.939-12.562l2.957-1.559c11.903-6.259 11.903-6.259 22.266-14.684C2186 715 2186 715 2188 715l1-3c4.183-2.789 6.496-1.859 11.297-.949 15.53 3.981 34.197 11.443 45.703 22.949-.107 8.896-1.905 17.632-3.687 26.313l-.403 1.977c-3.56 17.433-8.08 34.44-13.472 51.398l-1.103 3.473c-7.287 22.43-17.633 43.664-31.335 62.839l-1.484 2.184c-1.122 1.641-2.312 3.235-3.516 4.816h-2l-.812 1.785c-8.727 16.277-33.71 28.824-50.812 34.152-29.457 8.872-61.689 1.355-88.289-12.691-20.048-10.896-38.202-23.903-54.572-39.801-1.94-1.852-3.964-3.591-6.014-5.32-3.205-2.764-5.951-5.769-8.68-9a117.74 117.74 0 0 0-3.766-4.187c-11.035-11.728-20.155-25.258-28.945-38.711l-5.359-7.977c-3.258-4.905-6.033-10.03-8.75-15.25l-.979-1.875c-7.878-15.166-16.147-31.788-12.557-49.407.66-1.906.66-1.906 2.535-4.719 2.875-1.187 2.875-1.187 6-1 8.267 5.658 11.821 15.542 15.908 24.352 4.527 9.743 9.246 18.455 15.811 26.944 2.383 3.17 4.563 6.481 6.781 9.767 8.687 12.708 18.288 24.433 28.5 35.938l1.442 1.638c11.281 12.784 23.516 23.695 37.558 33.362l1.77 1.223c19.129 13.084 43.665 26.341 67.566 23.281 14.363-2.717 25.08-10.936 35.664-20.504l2.25-1.961c15.767-14.559 24.33-36.732 29.75-57.039l.59-2.161c2.335-8.681 4.115-16.773 3.41-25.839-4.215.538-6.459 1.859-9.75 4.5-20.167 15.105-47.34 24.637-72.25 27.5l-2.742.332c-17.449 1.854-32.697.387-47.07-10.453-20.572-17.4-29.591-46.754-31.972-72.807-1.257-17.931-1.221-35.711 3.785-53.072l.633-2.21c4.653-15.622 12.663-34.086 24.367-45.79.041-2 .043-4 0-6-20.431-1.455-40.529-2.44-61-1l-3.177.22-18.769 1.514-9.336.77-5.969.496-2.761.215-2.567.223-2.231.184c-2.268.302-2.268.302-4.516 1.399-3.403 1.247-6.26 1.219-9.881 1.218l-4.217.049-6.575.018c-10.883-.168-10.883-.168-20.588 4.283-9.906 9.896-9.671 26.343-9.975 39.349l-.112 3.907-.537 26.675-.227 13.73-.059 3.536c-.337 19.669-1.088 39.287-2.098 58.931l-.944 21.451-.134 3.371-.511 13.154-.351 9.026-.098 2.662c-.212 5.324-.624 10.602-1.13 15.906-.373 4.264-.559 8.531-.738 12.807l-.123 2.766-.377 8.64-1.516 27.086c-.5 4.907-.676 9.807-.844 14.734-1.02 29.281-4.457 57.084-10.449 85.785-1.447 7.004-2.633 14.05-3.76 21.112-2.912 17.596-2.912 17.596-8.431 21.783-2.738-1.004-3.793-1.564-5.066-4.246-6.01-17.728-4.105-38.745-4.171-57.157l-.055-10.93-.084-16.245-.307-50.922-.017-2.421-1.895-103.621-.686-32.501-.029-2.046-.137-9.912c-.262-19.128-.737-38.205-1.82-57.304-.711-12.555-1.121-25.104-1.391-37.675l-.049-2.096-.119-5.55c-.213-7.044-.213-7.044-3.299-13.123-8.869-6.941-20.125-7.508-31-7.875l-2.898-.117L1786 626l-1-3c-3.439-1.798-6.398-2.296-10.25-2.312l-2.641-.051c-2.858.334-5.098.958-7.804 1.886l-2.446.834L1760 624c-1.778 16.173-2.312 32.151-2.301 48.414l-.013 7.526-.002 15.717-.021 15.816c-.224 64.977.96 132.921 22.864 194.893l.721 2.061 1.967 5.408c1.439 5.799-.28 10.132-3.215 15.164-3.534 4.908-6.697 7.348-12 10l-2.148 1.09c-4.013 1.281-7.788 1.25-11.977 1.223l-2.552-.008c-6.313-.106-12.514-.61-18.323-3.304-1.435-2.869-1.195-5.485-1.312-8.687-.435-8.119-2.256-15.549-4.687-23.312l-1.059-3.492c-5.946-18.148-16.762-36.462-34.152-45.68-8.186-3.855-17.871-7.022-26.842-4.177-6.232 2.452-10.098 6.033-14.572 10.911-18.711 19.474-41.78 31.984-69.215 32.871l-8.098.004-2.158-.009c-19.869-.124-38.479-3.746-57.418-9.655l-7.314-2.211c-22.372-6.727-43.42-16.036-63.172-28.562l-3.32-2.082c-15.373-9.707-30.07-20.559-43.457-32.879-2.018-1.852-4.076-3.637-6.16-5.414-20.369-17.843-20.369-17.843-21.301-28.297-.202-8.364.698-12.597 6.551-18.766 3.649-2.121 5.515-2.27 9.688-1.562 7.605 4.184 13.721 11.302 19.313 17.813 8.342 9.622 17.326 17.827 27.688 25.188l1.651 1.18c8.897 6.264 18.278 10.782 28.301 14.965l5.368 2.289c14.527 6.218 29.364 10.758 44.68 14.566l2.198.557c26.175 6.386 58.7 4.236 82.193-10.006 15.636-10.277 24.626-25.17 29.066-43.309 1.658-9.901 1.745-19.854 1.73-29.867v-2.147c-.019-10.549-.424-20.807-2.187-31.228l-.695-4.367c-4.549-27.745-12.453-54.75-35.477-72.758-4.369-2.897-8.792-4.515-13.828-5.875l-2.305-.676c-10.368-2.712-19.942-1.791-29.695 2.676-5.157 3.868-8.279 9.284-9.504 15.598-.75 5.798-.75 5.798.504 11.402 1.723 1.171 1.723 1.171 4 2l2.883 1.367c5.139 2.39 10.241 4.72 15.555 6.695 5.637 2.242 9.85 4.828 12.563 10.5 2.336 7.442-.084 15.181-3.437 21.938-8.152 13.713-21.334 25.424-36.562 30.5-13.338 1.17-24.153.578-35.062-7.625-13.048-11.082-21.914-24.176-23.937-41.375-1.005-22.722 4.772-41.024 19.777-58.184 2.532-2.611 2.532-2.611 2.223-5.816-8.057-2.553-16.182-3.992-24.525-5.198l-10.415-1.592c-15.034-2.296-29.885-2.679-45.076-2.602-3.374.017-6.746.007-10.12-.01-13.484-.058-26.686.154-40.002 2.441-10.971 1.855-10.971 1.855-15.675-1.227-3.887-5.933-4.03-12.568-2.687-19.332 1.706-6.311 4.04-13.386 9.875-16.918 46.228-9.906 114.071 4.79 158.49 18.837 6.153 1.729 10.143.305 15.632-2.314 8.742-3.791 18.076-4.732 27.504-5.086l3.266-.125c17.223-.32 36.08 1.298 51.734 9.125 4.1.526 7.098-.302 10.875-1.75 29.195-11.09 63.634-12.175 94.32-7.59l2.805.34c1.871-1.871 1.221-5.182 1.313-7.687.374-5.743.654-9.163 4.688-13.312 6.363-4.146 16.285-2.649 23.438-1.172 10.464 2.439 10.464 2.439 14.563 5.172.41 4.411-.303 8.643-1 13 5.897-.648 11.592-1.685 17.375-3l2.441-.539c4.204-.895 4.204-.895 8.184-2.461 2.994-.24 5.998-.19 9-.187l2.612-.002c5.32.044 10.251.456 15.431 1.744 2.669.607 5.234.589 7.957.445.314-5.109-.822-9.329-2.449-14.109l-.771-2.324-1.632-4.851-2.443-7.333c-2.472-7.41-5.021-14.515-8.698-21.431-6.025-11.676-5.837-28.694-2.382-41.139 1.967-5.413 4.417-9.64 8.375-13.812l1.824-1.98c20.39-20.079 55.1-23.763 82.165-25.856 1.703-.138 3.403-.314 5.101-.499 14.732-1.564 29.969-1.423 44.58.977zm426.455 159.109l-2.532.523c-5.658 1.212-11.238 2.626-16.78 4.289l-2.052.599c-2.067.623-2.067.623-4.76 1.839l-1 3 2 3h2v2c1.554 1.373 3.17 2.675 4.809 3.945 6.159 4.93 11.713 10.313 17.254 15.93l2.834 2.836c6.821 6.866 6.821 6.866 9.104 10.289h2l.746 1.746c1.456 2.616 3.14 4.263 5.316 6.316 4.167 4.074 7.84 8.365 11.48 12.91 2.795 3.444 5.681 6.798 8.582 10.152 3.812 4.423 7.558 8.866 11.078 13.527 1.438 1.878 2.906 3.711 4.406 5.539l2.766 3.434 1.338 1.596c3.057 3.843 4.23 6.866 4.287 11.779-1.626 3.52-4.376 6.167-7 9l-2.32 2.563c-14.211 14.95-31.765 26.103-49.688 36.052-4.695 2.62-9.314 5.337-13.866 8.198l-1.785 1.094c-3.118 1.992-5.084 3.556-6.34 7.094 8.916 14.622 24.833 23.041 39.054 31.797 9.134 5.644 18.007 11.573 26.708 17.863 6.966 5.034 14.049 9.901 21.123 14.78l14.358 10.198L2462 876l2.656 1.914L2467 879c2.136-.879 2.136-.879 4-2l-.317-11.322-.151-5.582c-.211-7.025-.513-14.026-1.01-21.038-1.845-26.813-1.79-53.587-1.717-80.454l.01-14.854 1.013-80.713.423-18.662.066-2.373c.033-5.812-1.16-10.22-4.753-14.858-5.002-4.264-10.313-6.261-16.562-8.145l-2.027-.652c-10.661-3.088-22.424-2.508-33.41-2.473l-3.658-.012c-11.709.013-23.298.466-34.779 2.887zm-718 7.188l-3.625.803c-7.425 1.585-7.425 1.585-14.5 4.26-1.291 2.259-1.291 2.259-1 5 1.742 2.881 1.742 2.881 4.313 5.75 8.625 10.536 15.66 22.591 20.688 35.25l.799 2.005c16.491 41.803 18.647 85.462 10.748 129.522-.429 2.341-.429 2.341-.547 5.473 2.047 2.729 3.9 3.476 7.184 4.141l2.533.546 2.721.563c8.624 1.895 16.821 4.387 25.076 7.515 5.574 2.124 5.574 2.124 11.487 2.235 1.688-1.688 1.136-3.792 1.145-6.106l.019-3.402.004-3.82.013-4.082.007-13.84v-4.839l-.968-101.485-.214-15.027-.312-20.487-.113-7.655-.171-10.535-.035-3.137-.059-2.871-.039-2.483c-.311-2.503-.896-4.124-2.277-6.232-4.345-1.205-8.711-1.129-13.199-1.133l-2.048-.003c-1.424-.001-2.849.001-4.273.005-2.144.005-4.287 0-6.431-.006-12.742-.01-24.482 1.224-36.924 4.074z" fill="#ff3a00"/><path d="M1102.813 532.25c2.355 1.884 3.098 2.979 4.188 5.75.477 7.335-1.945 12.645-5.875 18.625l-3.25 5.188-1.84 2.914c-3.646 5.864-7.138 11.82-10.65 17.766l-6.065 10.234-1.149 1.936-10.648 17.785-9.166 15.543-22.545 37.75-13.546 23.001c-1.299 2.315-2.653 4.587-4.028 6.858l-7.881 13.39-22.545 37.75-13.546 23.001c-1.299 2.315-2.653 4.587-4.028 6.858l-7.881 13.39-22.545 37.75-13.546 23.001c-1.299 2.315-2.653 4.587-4.028 6.858l-7.881 13.39-22.545 37.75C885.5 919.03 885.5 919.03 879.5 929.5c-2.166 3.934-4.44 7.79-6.77 11.629l-3.867 6.523C861.025 961.026 853.74 972.538 838 977c-2.952.458-5.829.555-8.812.563l-2.213.111c-10.996.086-18.942-7.115-26.381-14.393l-5.675-5.683-4.138-4.102-11.138-11.115-9.327-9.309-22.003-21.997-22.656-22.599-19.512-19.468-11.628-11.597-10.923-10.933-3.997-3.978c-8.835-8.719-17.931-18.312-19.421-31.268.003-1.348.047-2.698.137-4.043l.08-2.178c.645-11.262 6.779-19.817 14.983-27.26 2.415-1.925 4.84-3.493 7.559-4.953 6.005-3.287 11.872-6.796 17.754-10.297l5.389-3.202 3.634-2.159 14.379-8.499 23.23-14.008c3.128-1.906 6.313-3.682 9.527-5.437 4.117-2.286 8.124-4.757 12.152-7.195l61.18-36.24L850 674l20.584-12.222 11.115-6.599 11.727-6.984 3.416-2.02 6.906-4.078 20.432-12.377c3.175-1.937 6.405-3.743 9.668-5.525 4.117-2.286 8.124-4.757 12.152-7.195l61.18-36.24L1027 569l5-3 2.5-1.5 9.878-5.927 4.812-2.891 21.622-12.87 5.422-3.21 4.878-2.888 5.648-3.395c4.997-2.943 10.692-3.451 16.052-1.069zm-66.125 56.063l-3.34 2.015-19.773 12.11c-3.048 1.85-6.149 3.582-9.28 5.286-2.286 1.272-4.528 2.599-6.767 3.952l-18.277 10.887-3.563 2.111-16.882 9.979-26.125 15.715c-3.128 1.906-6.313 3.682-9.527 5.438-4.117 2.286-8.124 4.757-12.152 7.195l-61.18 36.24L830 711l-5 3-2.5 1.5-9.875 5.924-4.849 2.913-20.652 12.288-27.593 16.481c-4.468 2.695-8.984 5.279-13.554 7.798a194.68 194.68 0 0 0-6.603 3.846l-2.574 1.555L734 768l-6.437 3.875-1.823 1.1-11.65 6.883-7.213 4.21-3.589 2.079c-11.72 6.18-11.72 6.18-20.287 15.853-.704 3.824-.697 7.173 0 11 1.634 2.496 1.634 2.496 3.894 4.724l2.488 2.618L692 823l2.446 2.514 7.876 7.905 2.999 2.995 6.399 6.38 10.125 10.101 21.468 21.417 23.236 23.182 10.06 10.031 6.251 6.238 4.27 4.251 2.578 2.578 2.233 2.226C794 925 794 925 796.112 927.65c1.83 2.452 1.83 2.452 4.388 4.35 2.629 2.103 4.403 4.379 6.5 7l2.5 2c2.5 2 2.5 2 4.188 4.313 3.924 4.56 8.785 8.841 14.754 10.273 5.377.237 8.294-1.186 12.559-4.586 1.887-2.366 3.411-4.891 4.938-7.5l1.3-2.151L851 935l1.988-3.367 3.441-5.918 9.453-15.828 13.805-23.387 16.606-27.75c3-4.886 5.892-9.805 8.649-14.831 1.219-2.213 2.496-4.384 3.807-6.544l1.547-2.562L912 832l15.688-26.5 16.606-27.75c3-4.886 5.892-9.805 8.649-14.831 1.219-2.213 2.496-4.384 3.807-6.544l1.547-2.562L960 751l15.688-26.5 16.606-27.75c3-4.886 5.892-9.805 8.649-14.831 1.219-2.213 2.496-4.384 3.807-6.544l1.547-2.562L1008 670l15.688-26.5 16.606-27.75c2.995-4.878 5.883-9.79 8.636-14.809 1.283-2.326 2.63-4.607 4.008-6.878l1.504-2.5 3.273-5.312 1.66-2.687 1.523-2.434c1.331-2.173 1.331-2.173 1.102-5.129-8.664 0-18.137 7.956-25.312 12.313z" fill="#0085ff"/><path d="M665.583 830.028c7.148 5.117 13.175 11.442 19.363 17.644l3.881 3.865L699.301 862l8.761 8.752 20.664 20.658 21.298 21.271 18.319 18.299 10.927 10.913 10.266 10.268 3.762 3.754c9.894 9.834 18.956 19.405 19.17 34.089l-.031 2.435-.023 2.542c-.163 6.104-.924 10.887-4.415 16.02l-1.285 2.094c-6.222 9.29-17.227 14.075-26.643 19.623l-10.654 6.299-2.16 1.278-19.946 11.894-3.102 1.861-15.585 9.514c-4.603 2.857-9.302 5.454-14.078 8.008-3.173 1.781-6.135 3.804-9.134 5.861-2.356 1.532-4.739 2.866-7.221 4.182-7.374 3.986-14.556 8.283-21.754 12.574l-4.283 2.547-24.588 14.879c-3.263 2.018-6.553 3.95-9.914 5.8-4.043 2.226-8.001 4.57-11.951 6.957l-15.451 9.192-3.596 2.131-16.322 9.642-23.535 14.039-1.88 1.145-9.114 5.57c-6.059 3.701-12.15 7.266-18.425 10.588-2.389 1.328-4.622 2.779-6.878 4.322-3.026 2.067-6.071 3.897-9.309 5.613-7.374 3.986-14.556 8.283-21.754 12.574l-4.283 2.547-24.588 14.879c-4.117 2.546-8.302 4.931-12.542 7.265-2.246 1.244-4.454 2.539-6.649 3.871l-2.574 1.555L446 1231l-29.945 17.852-18.137 10.812-2.79 1.684-5.125 3.11-2.284 1.382-1.971 1.199c-4.023 2.212-8.256 2.767-12.748 1.961-2.691-2.176-4.455-3.911-6-7-.479-5.539.606-9.044 3.438-13.687l1.186-2.027L376 1239l1.821-3.008 8.378-13.783 15.738-26.396 1.094-1.873 5.175-8.867 7.924-13.49 7.655-13.071 24.418-40.974L461 1096l3.078-5.297 1.549-2.665 37.189-62.232c3.05-4.855 5.844-9.802 8.564-14.848 3.028-5.532 6.236-10.959 9.431-16.395l1.099-1.874 27.15-45.001c3.649-5.87 7.133-11.774 10.4-17.864 2.991-5.492 6.182-10.87 9.35-16.261l1.099-1.874 27.251-45.186 1.084-1.753 2.977-4.802c1.722-2.858 3.33-5.754 4.901-8.698 7.676-14.217 15.135-22.841 30.859-27.887 9.843-1.774 20.35 1.309 28.599 6.664zm-37.208 24.16c-1.821 2.822-3.433 5.724-5.02 8.684-3.665 6.75-7.528 13.381-11.418 20.004l-1.116 1.904c-5.411 9.227-10.925 18.382-16.623 27.435a262.08 262.08 0 0 0-7.914 13.484c-1.839 3.292-3.795 6.51-5.745 9.738l-7.728 13.188-34.805 58.121c-1.97 3.193-3.784 6.439-5.592 9.725-2.79 4.984-5.742 9.873-8.666 14.779l-4.273 7.191-1.108 1.866-7.845 13.345-1.109 1.901-2.199 3.768-16.085 26.676c-2.421 3.785-4.626 7.653-6.79 11.588-2.421 4.365-4.947 8.669-7.465 12.978l-1.798 3.078-33.069 55.105c-1.977 3.204-3.806 6.459-5.62 9.757-2.64 4.749-5.397 9.431-8.138 14.122l-1.854 3.185-8.31 13.948-1.278 2.08-2.318 3.696c-1.994 3.226-2.489 4.523-2.489 8.466 5.709-.243 8.855-1.969 13.459-5.273 2.4-1.631 4.801-3.007 7.365-4.36 7.372-3.973 14.546-8.267 21.738-12.555l4.283-2.547 24.588-14.879c4.117-2.546 8.302-4.931 12.542-7.265 2.246-1.244 4.454-2.539 6.649-3.871l2.574-1.555L508 1170l61.18-36.24L589 1122l28.063-16.75 1.768-1.047 17.994-10.632 31.327-18.815c4.886-2.994 9.807-5.88 14.831-8.638 2.841-1.574 5.616-3.247 8.393-4.93l54.805-32.428 17.588-10.419 6.208-3.684c11.502-6.071 11.502-6.071 20.523-14.969 1.397-7.507.779-12.211-3.5-18.687-1.793-2.056-3.562-3.964-5.497-5.871l-1.645-1.658-5.442-5.428-3.908-3.919-10.605-10.592-11.104-11.098-18.65-18.621-21.55-21.532-20.74-20.729-8.821-8.818-10.394-10.372-3.811-3.808-5.21-5.191-1.516-1.527c-4.171-4.119-7.906-7.252-13.92-7.398-7.14.234-11.625 4.246-15.812 9.75z" fill="#ff3902"/><path d="M2652.375 1158.813l2.398-.043c2.227.23 2.227.23 5.227 2.23.879 2.25.879 2.25 1.563 5l.758 3.02c.766 3.361 1.439 6.731 2.082 10.117.761 3.648 1.677 7.253 2.598 10.863 1.52 5.968 2.893 11.941 4 18l4 1 .551-2.422c2.51-10.967 5.143-21.792 8.543-32.52.807-2.722 1.427-5.399 1.969-8.184 1.178-4.87 1.178-4.87 3.938-6.875 2.41-.363 2.41-.363 5.063-.312l2.66.012C2700 1159 2700 1159 2702 1161c2.63 6.694 4.094 13.593 5.554 20.615.645 3.053 1.258 5.922 2.434 8.818 1.577 4 2.29 8.173 3.137 12.379l.551 2.678L2715 1212h3l.297-1.879c1.064-6.303 2.54-12.403 4.239-18.564 1.25-4.593 2.172-9.167 2.972-13.854.559-3.07 1.218-6.102 1.93-9.141l.684-2.934c.942-2.819 1.75-4.549 3.879-6.629 2.41-.496 2.41-.496 5.063-.437l2.66.004 2.277.434c2 3 2 3 1.426 6.152l-1.113 3.785-1.164 4.078-.595 2.045c-.769 2.694-1.447 5.407-2.116 8.127l-.727 2.926-1.422 5.805c-1.595 6.492-3.377 12.909-5.242 19.328-1.358 4.87-2.568 9.771-3.74 14.688-1.202 4.96-1.202 4.96-2.307 6.065-2.491.1-4.947.139-7.437.125l-2.104.012c-5.206-.01-5.206-.01-7.459-1.137-.654-1.962-.654-1.962-1.219-4.516l-.637-2.793-.645-2.941-1.281-5.703-.564-2.567c-.686-2.601-1.626-4.997-2.654-7.479a74.01 74.01 0 0 1-.937-4l-2.687-12.062-.789-3.41L2696 1183c-3.944 5.136-5.187 9.778-6.367 16.055-.99 4.605-2.364 9.092-3.691 13.609a113.19 113.19 0 0 0-2.004 8.273c-.825 3.969-2.221 7.395-3.937 11.063l-7.312.313-2.092.127c-2.021.049-2.021.049-5.596-.439-3.756-3.884-4.369-9.983-5.5-15.125l-1.305-5.691-.624-2.735c-.862-3.697-1.869-7.346-2.896-11-1.025-3.714-1.932-7.457-2.848-11.199-.771-3.026-1.613-6.027-2.464-9.032-1.653-5.901-2.976-11.092-2.364-17.218 1.58-1.58 3.195-1.17 5.375-1.187zm-143.375.062l2.234-.012c5.512.01 5.512.01 7.766 1.137l2.813 8 .799 2.453c2.393 7.414 4.604 14.877 6.758 22.364l3.443 11.746 1.27 4.316.918 3.121h3c2.205-4.13 3.69-8.039 4.875-12.562 1.295-4.706 2.747-9.22 4.563-13.75 2.368-5.908 4.154-11.893 5.775-18.04 1.015-3.686 1.732-6.276 4.787-8.647 2.956-.244 5.678-.328 8.625-.25l2.391.016c5.83.08 5.83.08 6.984 1.234.1 2.203.128 4.41.129 6.615l.005 2.094-.002 6.884.003 4.764-.005 9.997.004 12.843v9.841l.002 4.737-.007 6.609-.002 3.806C2576 1231 2576 1231 2575 1232a97.71 97.71 0 0 1-5.5.125l-3.031.008C2564 1232 2564 1232 2563 1231c-.122-1.503-.178-3.012-.205-4.52l-.06-2.912-.051-3.166-.063-3.224-.183-10.241-.131-6.924L2562 1183l-3-1-.812 3.875c-2.621 11.777-6.824 23.172-10.75 34.563l-.92 2.717-.896 2.592-.799 2.334C2544 1230 2544 1230 2542 1232c-2.496.336-2.496.336-5.437.375l-2.934.086c-2.629-.461-2.629-.461-4.199-2.214-1.426-2.242-2.198-4.117-2.929-6.661l-.75-2.559-.75-2.652-.75-2.582-1.496-5.179c-2.661-9.231-2.661-9.231-5.816-18.301-1.509-4.07-2.819-8.119-3.937-12.312-2.196 1.78-2.196 1.78-2.234 4.094l.023 2.615.01 2.963.041 3.207.016 3.28.082 10.404.071 10.414.053 6.49.02 2.953.025 2.613C2511 1231 2511 1231 2510 1232c-1.664.098-3.333.13-5 .125l-2.75.008C2500 1232 2500 1232 2499 1231c-.094-2.209-.117-4.42-.114-6.631v-2.099l.016-6.899.004-4.771.025-12.581.02-12.829.049-25.19c3.158-1.579 6.537-1.143 10-1.125zm-674.125-.25l2.184-.113c3.775-.063 5.515.082 8.293 2.727l4.148 7.324c2.977 5.598 6.217 11.014 9.5 16.438 3.788 6.263 7.496 12.53 10.914 19.004 1.163 2.209 1.163 2.209 3.086 4.996l4 1v-50c2.38-1.19 3.915-1.133 6.563-1.125l2.441-.008C1888 1159 1888 1159 1889 1160c.1 2.203.128 4.41.129 6.615l.005 2.094-.002 6.884.003 4.764-.005 9.997.004 12.843v9.841l.002 4.737-.007 6.609-.002 3.806C1889 1231 1889 1231 1888 1232a147.09 147.09 0 0 1-8.312.375l-2.342.113c-5.726.089-5.726.089-8.709-2.687L1867 1227l-1.492-2.543-1.383-2.645c-2.432-4.565-5.012-9.001-7.695-13.422-1.762-2.946-3.416-5.943-5.066-8.953-2.23-3.988-4.576-7.908-6.91-11.836C1843 1185 1843 1185 1842 1182c-2.015-.733-2.015-.733-4-1l.007 1.891.048 19.416.021 7.255.022 10.403.016 3.299v3.033l.007 2.685C1838 1231 1838 1231 1837 1232a97.71 97.71 0 0 1-5.5.125l-3.031.008C1826 1232 1826 1232 1825 1231c-.094-2.209-.117-4.42-.114-6.631v-2.099l.016-6.899.004-4.771.025-12.581.02-12.829.049-25.19c3.132-1.566 6.439-1.308 9.875-1.375zm-84 0l2.184-.113c3.775-.063 5.515.082 8.293 2.727l4.148 7.324c2.977 5.598 6.217 11.014 9.5 16.438 3.788 6.263 7.496 12.53 10.914 19.004 1.163 2.209 1.163 2.209 3.086 4.996l4 1v-50c2.38-1.19 3.915-1.133 6.563-1.125l2.441-.008C1804 1159 1804 1159 1805 1160c.1 2.203.128 4.41.129 6.615l.005 2.094-.002 6.884.003 4.764-.005 9.997.004 12.843v9.841l.002 4.737-.007 6.609-.002 3.806C1805 1231 1805 1231 1804 1232a147.09 147.09 0 0 1-8.312.375l-2.342.113c-5.726.089-5.726.089-8.709-2.687L1783 1227l-1.492-2.543-1.383-2.645c-2.432-4.565-5.012-9.001-7.695-13.422-1.762-2.946-3.416-5.943-5.066-8.953-2.23-3.988-4.576-7.908-6.91-11.836C1759 1185 1759 1185 1758 1182c-2.015-.733-2.015-.733-4-1l.007 1.891.048 19.416.021 7.255.022 10.403.016 3.299v3.033l.007 2.685C1754 1231 1754 1231 1753 1232a97.71 97.71 0 0 1-5.5.125l-3.031.008C1742 1232 1742 1232 1741 1231c-.094-2.209-.117-4.42-.114-6.631v-2.099l.016-6.899.004-4.771.025-12.581.02-12.829.049-25.19c3.132-1.566 6.439-1.308 9.875-1.375zm-240.437.188l3.162-.037c10.612-.02 23.002.515 31.338 7.787 2.974 4.039 3.195 8.552 3.063 13.438-.962 5.774-3.129 8.823-7 13 1.143 2.805 2.321 4.321 4.5 6.5 3.725 3.725 4.81 6.496 4.938 11.75-.132 7.079-2.859 11.171-7.75 16.063-6.168 3.873-11.735 5.142-18.871 5.016l-2.245-.006-4.646-.041-7.142-.047-4.529-.031-2.162-.013c-4.975-.073-4.975-.073-6.092-1.19-.094-2.209-.117-4.42-.114-6.631v-2.099l.016-6.899.004-4.771.025-12.581.02-12.829L1497 1160c3.99-1.995 9.052-1.185 13.438-1.187zM1511 1173a88.1 88.1 0 0 0-.187 7.563l.002 2.115c-.269 3.451-.269 3.451 1.186 6.322 9.911 1.116 9.911 1.116 18.875-2.062 2.564-3.545 3.281-5.561 3.125-9.937-1.476-2.97-1.476-2.97-4-5-3.728-1.024-7.334-1.164-11.187-1.187l-3.168-.043c-2.801-.041-2.801-.041-4.645 2.23zm0 28c-.447 1.895-.447 1.895-.363 4.063l.002 2.414.049 2.523-.01 2.523c-.207 4.744-.207 4.744 2.322 8.477 7.153.847 13.594.321 20-3 2.127-2.481 2.013-4.147 2.313-7.437-.352-4.01-.545-5.632-3.312-8.562-6.505-2.95-14.746-5.169-21-1zm1275.125-42.312l2.766-.088c9.439-.087 16.456 2.987 23.32 9.428 7.895 8.706 9.254 19.528 9.047 30.914-.873 10.361-4.007 19.479-11.258 27.059-2.271 1.561-4.529 2.742-7 4l-1.937 1.188c-8.89 3.502-21.117 2.528-30.062-.187-5.34-2.699-9.656-5.983-13-11l-1.562-2.25c-3.674-7.028-4.974-13.675-4.875-21.562l.03-2.652c.309-11.315 3.028-19.247 11.025-27.469 7.137-6.189 14.412-7.285 23.508-7.379zM2771 1176c-5.69 9.273-4.212 20.413-3.875 30.875 1.674 5.978 5.27 10.559 10.688 13.625 5.145 2.195 10.064 2.534 15.395.77 5.862-2.664 8.758-5.921 11.371-11.852 1.694-4.642 1.921-8.949 1.859-13.855l-.021-2.536c-.204-7.821-1.867-12.874-6.792-18.964-8.527-6.7-20.864-5.546-28.625 1.938zm-635-17.125l2.688-.008C2141 1159 2141 1159 2143 1160l.076 2.355.362 10.52.119 3.707.127 3.535.111 3.269c.039 2.594.039 2.594 1.205 4.614h27c1.341-2.682 1.215-4.884 1.316-7.883l.127-3.535.119-3.707.131-3.73.307-9.145c2.488-1.244 4.227-1.133 7-1.125l2.688-.008C2186 1159 2186 1159 2188 1160l.052 27.72.024 12.87.019 12.41.011 4.745.008 6.624.007 3.815C2188 1231 2188 1231 2187 1232a116.03 116.03 0 0 1-6 .125l-3.312.008C2175 1232 2175 1232 2174 1231l-.281-5.898-.113-3.641-.105-3.836-.219-7.461-.092-3.361c-.077-2.885-.077-2.885-1.189-5.803h-27c-1.079 3.238-1.188 5.758-1.281 9.164l-.113 3.648-.211 7.648-.113 3.641-.092 3.354C2143 1231 2143 1231 2142 1232a116.03 116.03 0 0 1-6 .125l-3.312.008C2130 1232 2130 1232 2129 1231l-.114-6.631v-2.099l.016-6.899.004-4.771.025-12.581.02-12.829.049-25.19c2.488-1.244 4.227-1.133 7-1.125zm234-.062l2.754-.037c6.316-.013 12.106.779 18.246 2.225l3.75.813c5.222 1.908 8.271 4.556 11.125 9.313 2.165 5.889 1.998 12.393-.062 18.25-2.011 2.913-4.25 5.188-6.812 7.625l-4 5 3.938 6.188 1.211 1.898c3.564 5.548 7.342 10.923 11.199 16.27C2413 1229 2413 1229 2413 1232c-4.798.599-9.222.843-14 0-3.378-2.79-5.083-6.106-7-10l-2.562-4.625-1.203-2.195c-1.289-2.276-2.603-4.498-4.047-6.68l-1.27-1.969c-3.039-2.426-6.087-2.248-9.918-2.531l-.076 2.463-.362 10.975-.119 3.877-.127 3.682-.111 3.412C2372 1231 2372 1231 2371 1232a116.03 116.03 0 0 1-6 .125l-3.312.008C2359 1232 2359 1232 2358 1231c-.094-2.209-.117-4.42-.114-6.631v-2.099l.016-6.899.004-4.771.025-12.581.02-12.829.049-25.19c3.655-1.828 7.977-1.185 12-1.187zm2 14.188c-.293 1.92-.293 1.92-.23 4.098l.006 2.428.037 2.537.002 2.549c-.368 4.014-.368 4.014 1.186 7.389 2.245.179 4.498.268 6.75.313l3.734.113c4.121-.499 5.702-1.414 8.516-4.426 1.548-4.159 1.486-7.912-.312-11.937-3.151-3.851-4.731-4.512-9.687-5.062-5.485-.599-5.485-.599-10 2zm478-14.188l2.754-.037c6.316-.013 12.106.779 18.246 2.225l3.75.813c5.222 1.908 8.271 4.556 11.125 9.313 2.165 5.889 1.998 12.393-.062 18.25-2.011 2.913-4.25 5.188-6.812 7.625l-4 5 3.938 6.188 1.211 1.898c3.564 5.548 7.342 10.923 11.199 16.27C2893 1229 2893 1229 2893 1232c-4.798.599-9.222.843-14 0-3.378-2.79-5.083-6.106-7-10l-2.562-4.625-1.203-2.195c-1.289-2.276-2.603-4.498-4.047-6.68l-1.27-1.969c-3.039-2.426-6.087-2.248-9.918-2.531l-.076 2.463-.362 10.975-.119 3.877-.127 3.682-.111 3.412C2852 1231 2852 1231 2851 1232a116.03 116.03 0 0 1-6 .125l-3.312.008C2839 1232 2839 1232 2838 1231c-.094-2.209-.117-4.42-.114-6.631v-2.099l.016-6.899.004-4.771.025-12.581.02-12.829.049-25.19c3.655-1.828 7.977-1.185 12-1.187zm2 14.188c-.293 1.92-.293 1.92-.23 4.098l.006 2.428.037 2.537.002 2.549c-.368 4.014-.368 4.014 1.186 7.389 2.245.179 4.498.268 6.75.313l3.734.113c4.121-.499 5.702-1.414 8.516-4.426 1.548-4.159 1.486-7.912-.312-11.937-3.151-3.851-4.731-4.512-9.687-5.062-5.485-.599-5.485-.599-10 2zm-1192.312-14.251l2.936-.062c6.187-.033 10.728.766 16.377 3.313.326 4.675-.294 7.167-3 11l-2.055-.437c-10.173-2.029-19.558-3.286-28.668 2.539-3.733 2.843-5.61 5.565-7.277 9.898-.48 3.798-.51 7.55-.5 11.375l-.086 3.039c-.018 6.769 1.082 11.417 5.586 16.586 5.412 4.885 10.165 5.542 17.363 5.469 2.62-.291 2.62-.291 4.477-1.652 1.618-2.533 1.49-4.397 1.41-7.379l-.047-2.941c-.047-2.494-.047-2.494-1.203-4.496-2.552-.356-5.079-.444-7.652-.559L1655 1204c-2.449-3.673-2.315-5.664-2-10 2-2 2-2 4.506-2.243l3.123.012 3.385.006 3.549.037 3.561.002c8.737.045 8.737.045 9.877 1.186.089 2.594.115 5.16.098 7.754l-.004 2.35-.031 7.459-.014 5.045L1681 1228c-8.225 4.465-8.225 4.465-13.312 4.75l-2.832.16-2.855.09-2.762.121c-11.718.284-20.241-1.317-28.926-9.496-4.994-4.844-6.846-10.599-8.062-17.312l-.387-2.131c-1.643-9.897-.756-20.616 4.458-29.408 8.485-11.861 19.3-15.95 33.367-16.023zm320.437 0c23.635.044 23.635.044 31.625 6.563 4.465 4.669 6.393 8.579 6.75 15.063-.205 7.173-3.418 11.543-8.187 16.625-2.312 2-2.312 2-4.312 2 1.203 5.113 2.553 7.945 6 12l2.715 4.898c2.296 3.755 5.073 7.178 7.773 10.648L2024 1229l-1 3c-4.473.605-8.547.834-13 0-3.303-2.801-5.028-6.187-7-10l-3.125-5.187-4.078-6.996c-1.252-2.218-1.252-2.218-3.797-4.816-2.95-.662-4.932-.409-8 0-1.74 1.74-1.212 4.161-1.281 6.531l-.113 3.395-.105 3.574-.219 6.969-.092 3.139C1982 1231 1982 1231 1981 1232a97.71 97.71 0 0 1-5.5.125l-3.031.008C1970 1232 1970 1232 1969 1231c-.1-2.203-.128-4.41-.129-6.615l-.005-2.094.002-6.884-.003-4.764.005-9.997-.004-12.843v-9.841l-.002-4.737.007-6.609.002-3.806c.271-6.002 6.446-4.046 11.252-4.059zM1982 1173a74.3 74.3 0 0 0-.25 8.5l.016 2.379c-.032 4.195-.032 4.195 1.234 8.121l6.688.25 3.762.141c4.131-.454 5.651-1.486 8.551-4.391 1.699-2.935 2.016-4.605 1.875-8-1.041-3.569-2.172-5.443-4.875-8-5.454-1.611-12.217-2.189-17 1zm465.816-14.098l4.746.035 2.443.014 5.994.049c2.393 5.016 4.362 9.975 5.938 15.313 1.292 4.362 2.758 8.511 4.563 12.688 2.217 5.144 3.876 10.329 5.465 15.695 1.993 6.363 4.464 12.58 7.055 18.723 1.669 4.062 2.037 6.355.98 10.582l-5.875.063-3.305.035C2473 1232 2473 1232 2471 1231c-.746-2.074-.746-2.074-1.437-4.687-1.132-4.264-2.504-7.196-4.562-11.312h-27l-1 5-1.437 5.188-.746 2.605C2434 1230 2434 1230 2432 1232c-3.039.195-3.039.195-6.625.125l-3.602-.055-2.773-.07c-.239-4.515.361-7.472 2.25-11.562 1.866-4.246 3.436-8.426 4.75-12.875 1.634-5.52 3.606-10.826 5.715-16.18 1.366-3.596 2.593-7.227 3.785-10.883 7.05-21.463 7.05-21.463 12.316-21.598zM2451 1173c-2.579 5.83-4.621 11.736-6.312 17.875l-1.051 3.805c-.579 3.02-.79 4.529.363 7.32 1.163 1.392 1.163 1.392 4.379 1.098l4.184-.035 2.154-.014L2460 1203c1.287-1.558 1.287-1.558 2-4-.545-2.769-1.191-5.312-2-8l-1.148-4.465-1.227-4.473-.594-2.322c-.646-2.462-.646-2.462-2.031-5.74-2.028-.773-2.028-.773-4-1zm463-14.187l2.688-.043c2.313.23 2.313.23 4.313 2.23l.414 6.32.117 3.809.094 3.996.117 4.02.258 9.855h3l5.5-7.187c4.049-5.562 8.175-11.001 12.625-16.25l1.396-1.663c3.22-3.771 3.22-3.771 5.479-4.9 1.874-.07 3.75-.084 5.625-.062l3.039.027 2.336.035 1 3c-.953 1.742-.953 1.742-2.465 3.66l-1.665 2.142-1.808 2.261-1.804 2.312-7.872 9.794-2.137 2.582-1.859 2.172c-1.66 2.48-2.266 4.09-2.391 7.078 1.186 2.421 1.186 2.421 3.063 4.688 3.03 4.059 5.697 8.153 8.25 12.523 1.312 2.169 2.66 4.281 4.063 6.391l1.25 1.892 2.479 3.686c2.203 3.331 2.895 4.7 2.895 8.821-4.798.599-9.222.843-14 0-3.378-2.79-5.083-6.106-7-10l-2.5-4.5-1.168-2.184c-2.476-4.305-5.421-8.298-8.332-12.316-3.931.575-3.931.575-7 3-.355 2.602-.355 2.602-.379 5.629l-.104 3.385-.08 3.549-.191 6.941-.073 3.119C2921 1231 2921 1231 2920 1232a116.03 116.03 0 0 1-6 .125l-3.312.008C2908 1232 2908 1232 2907 1231c-.094-2.209-.117-4.42-.114-6.631v-2.099l.016-6.899.004-4.771.025-12.581.02-12.829.049-25.19c2.478-1.239 4.237-1.167 7-1.187zm-1494.305-.008l4.43.07 2.285.027 5.59.098c3.456 5.307 5.168 10.551 6.938 16.613 1.001 3.191 2.175 6.193 3.5 9.262 2.411 5.609 4.348 11.306 6.234 17.109 1.649 5.048 3.454 10.041 5.273 15.03 1.656 4.611 3.029 9.19 4.055 13.986-1.806 1.806-4.371 1.34-6.812 1.438-5.8-.069-5.8-.069-8.75-2.875-1.414-3.504-2.724-6.995-3.824-10.609-.572-2.004-.572-2.004-1.613-3.953h-26c-2.727 6.732-2.727 6.732-5.187 13.563C1405 1231 1405 1231 1404 1232a153.02 153.02 0 0 1-6.562.063l-3.629-.027L1391 1232c-1.017-2.652-1.059-3.822-.145-6.559l1.332-2.879c1.889-4.289 3.487-8.505 4.813-13 1.635-5.521 3.607-10.828 5.715-16.184 1.829-4.808 3.414-9.689 5.023-14.574l3.949-11.617 1.199-3.457c1.68-4.12 2.27-4.686 6.809-4.926zM1422 1173l-3.5 10.563-1.012 3.002c-1.733 5.322-3.042 9.828-2.488 15.436 1.214 1.444 1.214 1.444 4.816 1.098l4.746-.035 2.443-.014 5.995-.05c2.582-9.077-3.776-21.908-8-30h-3zm677.531-11.906c6.743 2.475 9.413 5.681 12.469 11.906 2.13 6.39 1.905 13.691-.625 19.938-3.159 6.152-8.063 9.389-14.375 12.063-2.748.446-5.47.554-8.25.625-5.029-.02-5.029-.02-9.75 1.375l-.076 2.187-.362 9.75-.119 3.443-.127 3.271-.111 3.031C2078 1231 2078 1231 2077 1232a116.03 116.03 0 0 1-6 .125l-3.312.008C2065 1232 2065 1232 2064 1231c-.094-2.209-.117-4.42-.114-6.631v-2.099l.016-6.899.004-4.771.025-12.581.02-12.829.049-25.19c8.869-4.435 26.217-1.553 35.531 1.094zM2078 1173c-.294 2.213-.294 2.213-.23 4.754l.006 2.838.037 2.971.002 2.982c-.396 4.567-.396 4.567 1.186 8.455 6.536.872 11.519-.398 17-4 3.099-3.099 2.941-6.74 3-11-.909-3.484-2.13-5.792-5-8-3.064-.974-5.92-1.164-9.125-1.187l-2.633-.043c-2.445.013-2.445.013-4.242 2.23zm528.219-14.133l2.466-.003 5.165.005 7.92-.006 5.012.004 2.402-.006c5.587.024 5.587.024 7.817 1.139l.063 4.938.035 2.777C2637 1170 2637 1170 2636 1171l-5.059.246-3.107.1-6.531.172-3.111.104-2.869.076c-2.514.088-2.514.088-4.323 2.303-.282 3.093-.282 3.093-.187 6.563l.02 3.566c-.157 2.767-.157 2.767 1.168 3.871l5.094.281 3.121.113 3.285.105 6.406.219 2.885.092C2635 1189 2635 1189 2636 1190v8c-2.561 2.561-3.666 2.297-7.227 2.414l-3.125.117-3.273.094-3.297.117-8.078.258-.125 8.375-.051 2.406.176 6.219c2.56 2.56 3.634 2.285 7.191 2.379l3.111.104 3.26.08 6.379.191 2.865.073C2636 1221 2636 1221 2637 1222l.125 4.5.008 2.469C2637 1231 2637 1231 2636 1232l-8.594.133-2.612.003a2062.28 2062.28 0 0 1-5.478-.005 2145.83 2145.83 0 0 0-8.415.006l-5.309-.004-2.56.006c-5.919-.024-5.919-.024-7.034-1.139l-.114-6.631v-2.099l.016-6.899.004-4.771.025-12.581.02-12.829.051-25.19c3.208-1.604 6.696-1.142 10.219-1.133zm-1029 0l2.466-.003 5.165.005 7.92-.006 5.012.004 2.402-.006c5.587.024 5.587.024 7.817 1.139l.063 4.938.035 2.777C1608 1170 1608 1170 1607 1171l-5.059.246-3.107.1-6.531.172-3.111.104-2.869.076c-2.514.088-2.514.088-4.323 2.303-.282 3.093-.282 3.093-.187 6.563l.02 3.566c-.157 2.767-.157 2.767 1.168 3.871l5.094.281 3.121.113 3.285.105 6.406.219 2.885.092C1606 1189 1606 1189 1607 1190v8c-2.561 2.561-3.666 2.297-7.227 2.414l-3.125.117-3.273.094-3.297.117-8.078.258-.125 8.375-.051 2.406.176 6.219c2.56 2.56 3.634 2.285 7.191 2.379l3.111.104 3.26.08 6.379.191 2.865.073C1607 1221 1607 1221 1608 1222l.125 4.5.008 2.469C1608 1231 1608 1231 1607 1232l-8.594.133-2.612.003a2062.28 2062.28 0 0 1-5.478-.005 2145.83 2145.83 0 0 0-8.415.006l-5.309-.004-2.56.006c-5.919-.024-5.919-.024-7.034-1.139l-.114-6.631v-2.099l.016-6.899.004-4.771.025-12.581.02-12.829.051-25.19c3.208-1.604 6.696-1.142 10.219-1.133zm644.031-.117c22.272.038 22.272.038 30.375 6.5 4.891 4.964 6.522 9.659 6.875 16.563-.196 6.275-1.631 11.191-5.5 16.188-4.615 3.907-9.256 7.032-15.352 7.316l-2.578.127-2.695.119-2.719.131-6.656.307-.076 2.279-.362 10.158-.119 3.588-.127 3.408-.111 3.158C2222 1231 2222 1231 2221 1232a97.71 97.71 0 0 1-5.5.125l-3.031.008C2210 1232 2210 1232 2209 1231c-.1-2.203-.128-4.41-.129-6.615l-.005-2.094.002-6.884-.003-4.764.005-9.997-.004-12.843v-9.841l-.002-4.737.007-6.609.002-3.806c.281-6.218 7.462-4.047 12.377-4.059zm.75 14.25c-.448 2.092-.448 2.092-.363 4.5l.002 2.688.049 2.813-.01 2.813c-.265 5.124-.265 5.124 2.322 9.188 5.505.982 10.496.07 15.332-2.672 2.944-2.344 3.759-4.752 4.668-8.328-.071-4.102-.618-6.372-2.75-9.875-4.09-3.863-8.808-3.255-14.164-3.355-2.392.102-2.392.102-5.086 2.23zm-301.781-14.133l2.466-.003 5.165.005 7.92-.006 5.012.004 2.402-.006c5.587.024 5.587.024 7.817 1.139l.063 4.938.035 2.777C1951 1170 1951 1170 1950 1171l-5.566.316-3.408.127-3.588.119-3.6.131-8.838.307-.062 7.438-.025 2.143.088 5.42c1.646 1.646 3.608 1.206 5.875 1.281l2.984.113 3.141.105 6.125.219 2.758.092C1948 1189 1948 1189 1949 1190l.125 4.5.008 2.469C1949 1199 1949 1199 1948 1200l-4.91.316-2.998.127-3.154.119-3.166.131-7.771.307c-1.121 3.362-1.133 5.963-1.125 9.5l-.008 3.469c-.004 3.078-.004 3.078 1.133 6.031l2.187.076 9.75.362 3.443.119 3.271.127 3.031.111C1950 1221 1950 1221 1951 1222l.125 4.5.008 2.469C1951 1231 1951 1231 1950 1232l-8.594.133-2.612.003a2062.28 2062.28 0 0 1-5.478-.005 2145.83 2145.83 0 0 0-8.415.006l-5.309-.004-2.56.006c-5.919-.024-5.919-.024-7.034-1.139l-.114-6.631v-2.099l.016-6.899.004-4.771.025-12.581.02-12.829.051-25.19c3.208-1.604 6.696-1.142 10.219-1.133zm391-.035l2.466-.01 5.165-.007 7.92-.039 5.012-.006 2.402-.022c5.588.023 5.588.023 7.817 2.252.23 1.875.23 1.875.188 4l-.02 2.125C2342 1169 2342 1169 2341 1171l-2.187.076-9.75.362-3.443.119-3.271.127-3.031.111c-2.277-.048-2.277-.048-3.317 1.205l-.098 4.035.008 2.207.028 2.82.063 8.938 23 1v10l-4.523.184-5.852.254-2.984.119-2.852.127-2.634.111c-2.203.079-2.203.079-4.155 1.205l-.076 2.463-.362 10.975-.119 3.877-.127 3.682-.111 3.412C2315 1231 2315 1231 2314 1232a116.03 116.03 0 0 1-6 .125l-3.312.008C2302 1232 2302 1232 2301 1231l-.114-6.631v-2.099l.016-6.899.004-4.771.025-12.581.02-12.829.049-25.19c3.207-1.603 6.696-1.163 10.219-1.168zm-600.219-.019l3.969-.037 3.781-.006 3.484-.012C1725 1159 1725 1159 1727 1161c0 3.438 0 3.438-1 7-3 1.875-3 1.875-6 3-1.22.999-1.22.999-1.12 2.98l.007 2.631v2.973l.016 3.232.004 3.291.031 10.455.014 7.068.048 17.37 3.438 1.273L1726 1224c1 3.625 1 3.625 1 7-1.883 1.883-5.119 1.131-7.625 1.133l-2.006.003c-1.402.001-2.804-.001-4.207-.005-2.153-.005-4.306 0-6.459.006l-4.078-.004-3.773-.003C1696 1232 1696 1232 1695 1231c-.5-2.75-.5-2.75 0-6 1.678-1.579 3.402-2.729 5.371-3.922 1.794-.993 1.794-.993 2.629-3.078l.129-4.203.01-2.63-.006-2.847.003-2.922-.005-6.128.006-9.375-.004-5.949.006-2.835-.01-2.649-.002-2.323c-.132-2.22-.338-4.053-1.127-6.138-2.963-1.238-2.963-1.238-6-2-1-1-1-1-1.062-4.562L1695 1160c4.577-2.288 10.975-1.185 16-1.187z" fill="#0085ff"/></svg>